<svg width="200" height="200" viewBox="0 0 200 200" xmlns="http://www.w3.org/2000/svg">
  <defs>
    <linearGradient id="wandGrad" x1="0%" y1="0%" x2="100%" y2="0%">
      <stop offset="0%" style="stop-color:#8B4513;stop-opacity:1" />
      <stop offset="100%" style="stop-color:#D2691E;stop-opacity:1" />
    </linearGradient>
    <filter id="glow">
      <feGaussianBlur stdDeviation="2.5" result="coloredBlur"/>
      <feMerge>
        <feMergeNode in="coloredBlur"/>
        <feMergeNode in="SourceGraphic"/>
      </feMerge>
    </filter>
  </defs>
  
  <!-- 魔法棒主体 -->
  <path d="M40 160 L160 40" stroke="url(#wandGrad)" stroke-width="10" stroke-linecap="round"/>
  
  <!-- 魔法棒手柄 -->
  <path d="M30 170 L50 150" stroke="#8B4513" stroke-width="15" stroke-linecap="round"/>
  
  <!-- 魔法棒尖端 -->
  <circle cx="160" cy="40" r="5" fill="#FFD700" filter="url(#glow)">
    <animate attributeName="r" values="5;7;5" dur="1s" repeatCount="indefinite"/>
  </circle>
  
  <!-- 魔法星星 -->
  <g>
    <path d="M170 30 L173 40 L183 40 L175 47 L178 57 L170 50 L162 57 L165 47 L157 40 L167 40 Z" fill="#FFD700" opacity="0.8">
      <animateTransform attributeName="transform" type="rotate" from="0 170 30" to="360 170 30" dur="3s" repeatCount="indefinite"/>
    </path>
    <path d="M50 150 L53 160 L63 160 L55 167 L58 177 L50 170 L42 177 L45 167 L37 160 L47 160 Z" fill="#FFD700" opacity="0.6">
      <animateTransform attributeName="transform" type="rotate" from="0 50 150" to="-360 50 150" dur="4s" repeatCount="indefinite"/>
    </path>
  </g>
  
  <!-- 魔法光芒 -->
  <g filter="url(#glow)">
    <path d="M160 40 L170 30 M160 40 L170 50 M160 40 L150 30 M160 40 L150 50" stroke="#FFD700" stroke-width="2">
      <animate attributeName="opacity" values="0.3;1;0.3" dur="2s" repeatCount="indefinite"/>
    </path>
  </g>
</svg>
